<svg width="1247" height="1150" viewBox="0 0 1247 1150" fill="none" xmlns="http://www.w3.org/2000/svg">
<path d="M736.294 557.983C725.591 548.862 709.673 550.503 699.849 560.639L696.001 564.604L692.154 560.639C682.349 550.503 666.412 548.862 655.709 557.983C643.444 568.451 642.799 587.24 653.776 598.588L691.568 637.61C694.009 640.13 697.974 640.13 700.415 637.61L738.208 598.588C749.204 587.24 748.559 568.451 736.294 557.983Z" fill="#1F564C"/>
<line x1="696.5" y1="158" x2="696.5" y2="532" stroke="#1F564C" stroke-width="11"/>
<line x1="696.5" y1="659" x2="696.5" y2="1033" stroke="#1F564C" stroke-width="11"/>
<path d="M197 612V868H282C375.333 868 422 822.667 422 732C422 700.667 410.333 673 387 649C363.667 624.333 324.667 612 270 612H197ZM197 351V583H238C331.333 583 378 540.667 378 456C378 386 327.333 351 226 351H197ZM42 902V881C78 881 99 874.333 105 861V358C99 344.667 78 338 42 338V317H226C309.333 317 372 330.667 414 358C456.667 385.333 478 417.667 478 455C478 523 442.667 569 372 593C422 604.333 459.333 623 484 649C509.333 674.333 522 701.667 522 731C522 781.667 501.667 823 461 855C421 886.333 361.333 902 282 902H42Z" fill="#1F564C"/>
<path d="M1157 730C1157 753.333 1154.33 775 1149 795C1143.67 815 1135 834.333 1123 853C1111.67 871 1094.67 885.333 1072 896C1049.33 906.667 1022.33 912 991 912C943.667 912 906.667 902.667 880 884C854 864.667 841 844 841 822C841 806.667 845 794.667 853 786C861 776.667 871.333 772 884 772C896 772 906.333 775 915 781C924.333 787 929 795.667 929 807C929 829.667 920.667 843.667 904 849C922 867 947.667 876 981 876C996.333 876 1009.33 873.333 1020 868C1030.67 862 1039 854.667 1045 846C1051 836.667 1055.33 823.667 1058 807C1061.33 789.667 1063.33 773.333 1064 758C1064.67 742 1065 720.667 1065 694V358C1059 344.667 1038 338 1002 338V317H1220V338C1184 338 1163 344.667 1157 358V730Z" fill="#1F564C"/>
</svg>
